<svg id="Layer_1" data-name="Layer 1" xmlns="http://www.w3.org/2000/svg" viewBox="0 0 595.28 218.67"><title>Artboard 2</title><path d="M32.5,173.89,13.38,193.27v24.6H3.49V124.3h9.89v56.54L68.32,124.3H79.69L39.18,166.67l43.31,51.2H70.73Z"/><path d="M106.69,208.24Q96.52,197.82,96.53,177.9V124.3h9.89v53.2q0,16.31,7.35,24.32t21.26,8q14,0,21.39-8t7.35-24.32V124.3h9.62v53.6q0,19.92-10.09,30.34T135,218.67Q116.85,218.67,106.69,208.24Z"/><path d="M265.89,217.87,244.5,187.79a67,67,0,0,1-7.48.4H211.89v29.68H202V124.3h35q17.91,0,28.07,8.55t10.16,23.53q0,11-5.55,18.51t-15.84,10.9l22.86,32.08ZM258,173.62q7.33-6.15,7.34-17.24,0-11.37-7.34-17.44t-21.26-6.09H211.89v46.92h24.86Q250.66,179.77,258,173.62Z"/><path d="M313,212.52a45,45,0,0,1-17.51-17,50.05,50.05,0,0,1,0-48.8,44.88,44.88,0,0,1,17.58-17,51.42,51.42,0,0,1,25.13-6.15A52,52,0,0,1,357.46,127a40,40,0,0,1,15,10.16l-6.28,6.28q-11-11.08-27.68-11.09a40.63,40.63,0,0,0-20.18,5.08,37.08,37.08,0,0,0-14.24,13.9,40.63,40.63,0,0,0,0,39.56,37.11,37.11,0,0,0,14.24,13.91,40.73,40.73,0,0,0,20.18,5.08q16.84,0,27.68-11.23l6.28,6.28a40.39,40.39,0,0,1-15,10.23,51.78,51.78,0,0,1-19.32,3.54A51,51,0,0,1,313,212.52Z"/><path d="M451,192.87H398.9l-11.23,25H377.38l42.77-93.57h9.76l42.77,93.57H462.26Zm-3.61-8L425,134.59,402.5,184.85Z"/><path d="M502.56,212.52a45,45,0,0,1-17.51-17,50.05,50.05,0,0,1,0-48.8,44.88,44.88,0,0,1,17.58-17,51.42,51.42,0,0,1,25.13-6.15A52,52,0,0,1,547,127a40,40,0,0,1,15,10.16l-6.29,6.28q-11-11.08-27.67-11.09a40.6,40.6,0,0,0-20.18,5.08,37.08,37.08,0,0,0-14.24,13.9,40.63,40.63,0,0,0,0,39.56,37.11,37.11,0,0,0,14.24,13.91A40.71,40.71,0,0,0,528,209.85q16.85,0,27.67-11.23L562,204.9a40.39,40.39,0,0,1-15,10.23,51.78,51.78,0,0,1-19.32,3.54A51,51,0,0,1,502.56,212.52Z"/><path d="M581.89,124.3h9.9v93.57h-9.9Z"/><path d="M123.69,63.43a106.22,106.22,0,0,1-1.2,18,14.46,14.46,0,0,1-4.94,8.69,13.48,13.48,0,0,1-9.7,3.61s-1.87,0-7.21-2.27l-5.75,4.14c3.21,1.61,3.87,2,4.68,2.41s1.47.53,2.27.8a20.37,20.37,0,0,0,6.35.94A34,34,0,0,0,122.36,97a25.12,25.12,0,0,0,14.7-18.58,98.93,98.93,0,0,0,.94-15V.13H123.69Z"/><polygon points="162.13 99.65 221.41 99.65 221.41 93.1 179.44 93.1 179.44 50.73 207.11 50.73 207.11 44.18 179.44 44.18 179.44 6.68 221.68 6.68 221.68 0 162.13 0 162.13 99.65"/><path d="M265.66,63.43a106,106,0,0,1-1.21,18,14.46,14.46,0,0,1-4.94,8.69,13.71,13.71,0,0,1-9.69,3.61s-1.88,0-7.22-2.27l-5.75,4.14c3.21,1.61,3.88,2,4.68,2.41s1.47.53,2.27.8a19.94,19.94,0,0,0,6.28.94A34,34,0,0,0,264.32,97,25.06,25.06,0,0,0,279,78.4a98.93,98.93,0,0,0,.94-15V.13h-14.3Z"/><path d="M342.39.13,301.15,99.79h8.55l13.7-35.43h33l6.95,16.71s2.14,5.08,7.62,18.72h18.58L347.33.13ZM325.68,58l13.9-34.49L353.88,58Z"/><path d="M486.29,85.55l-6.09-6.28-.06-.07-.34-.27-.2-.26-2.47-2.54-3.21-3.28-31.41-32L457.08,27.6l2.14-2.4c2.27-2,4-3.88,5.74-5.48L485.82.13h-9.49l-25.27,22.8a1.63,1.63,0,0,0-.53.93l-25.6,23.39V.13H407.69V99.79h17.24V56.48l4.88-4.55,26.33,26.34.67.66.6.61,8.89,9.15,10.29,11.1h23.8Z"/></svg>