<svg id="Layer_1" data-name="Layer 1" xmlns="http://www.w3.org/2000/svg" viewBox="0 0 595.28 218.67"><title>Artboard 1</title><path d="M36,173.89,16.87,193.27v24.6H7V124.3h9.89v56.54L71.81,124.3H83.18L42.67,166.67,86,217.87H74.22Z"/><path d="M110.18,208.24Q100,197.82,100,177.9V124.3h9.89v53.2q0,16.31,7.35,24.32t21.26,8q14,0,21.38-8t7.36-24.32V124.3h9.62v53.6q0,19.92-10.09,30.34t-28.27,10.43Q120.32,218.67,110.18,208.24Z"/><path d="M269.38,217.87,248,187.79a67,67,0,0,1-7.48.4H215.37v29.68h-9.89V124.3h35q17.91,0,28.07,8.55t10.16,23.53q0,11-5.55,18.51t-15.84,10.9l22.86,32.08Zm-7.89-44.25q7.35-6.15,7.35-17.24,0-11.37-7.35-17.44t-21.25-6.09H215.37v46.92h24.87Q254.15,179.77,261.49,173.62Z"/><path d="M316.5,212.52a45,45,0,0,1-17.51-17,50.05,50.05,0,0,1,0-48.8,44.88,44.88,0,0,1,17.58-17,51.42,51.42,0,0,1,25.13-6.15A52,52,0,0,1,360.94,127a40,40,0,0,1,15,10.16l-6.28,6.28q-11-11.08-27.68-11.09a40.63,40.63,0,0,0-20.18,5.08,37.08,37.08,0,0,0-14.24,13.9,40.63,40.63,0,0,0,0,39.56,37.11,37.11,0,0,0,14.24,13.91A40.73,40.73,0,0,0,342,209.85q16.85,0,27.68-11.23l6.28,6.28a40.39,40.39,0,0,1-15,10.23,51.78,51.78,0,0,1-19.32,3.54A51,51,0,0,1,316.5,212.52Z"/><path d="M454.52,192.87H402.38l-11.22,25h-10.3l42.78-93.57h9.76l42.77,93.57H465.75Zm-3.61-8-22.46-50.26L406,184.85Z"/><path d="M506.05,212.52a45,45,0,0,1-17.51-17,50.05,50.05,0,0,1,0-48.8,44.88,44.88,0,0,1,17.58-17,51.42,51.42,0,0,1,25.13-6.15A52,52,0,0,1,550.49,127a40,40,0,0,1,15,10.16l-6.29,6.28q-10.95-11.08-27.67-11.09a40.6,40.6,0,0,0-20.18,5.08,37.08,37.08,0,0,0-14.24,13.9,40.63,40.63,0,0,0,0,39.56,37.11,37.11,0,0,0,14.24,13.91,40.71,40.71,0,0,0,20.18,5.08q16.85,0,27.67-11.23l6.29,6.28a40.47,40.47,0,0,1-15,10.23,51.78,51.78,0,0,1-19.32,3.54A51,51,0,0,1,506.05,212.52Z"/><path d="M585.38,124.3h9.9v93.57h-9.9Z"/><path d="M28.81,63.43a106,106,0,0,1-1.21,18,14.46,14.46,0,0,1-4.94,8.69A13.48,13.48,0,0,1,13,93.77s-1.87,0-7.22-2.27L0,95.64c3.21,1.61,3.88,2,4.68,2.41s1.47.53,2.27.8a20.42,20.42,0,0,0,6.35.94A33.94,33.94,0,0,0,27.47,97,25.06,25.06,0,0,0,42.17,78.4a98.93,98.93,0,0,0,.94-15V.13H28.81Z"/><polygon points="67.24 99.65 126.52 99.65 126.52 93.1 84.55 93.1 84.55 50.73 112.22 50.73 112.22 44.18 84.55 44.18 84.55 6.68 126.79 6.68 126.79 0 67.24 0 67.24 99.65"/><path d="M170.77,63.43a107.3,107.3,0,0,1-1.2,18,14.48,14.48,0,0,1-4.95,8.69,13.71,13.71,0,0,1-9.69,3.61s-1.87,0-7.22-2.27L142,95.64c3.21,1.61,3.88,2,4.68,2.41s1.47.53,2.27.8a20,20,0,0,0,6.29.94A34,34,0,0,0,169.43,97a24.43,24.43,0,0,0,10-7.89,24.68,24.68,0,0,0,4.68-10.69,100.56,100.56,0,0,0,.93-15V.13h-14.3Z"/><path d="M247.5.13,206.26,99.79h8.55l13.71-35.43h33l7,16.71s2.14,5.08,7.62,18.72h18.58L252.44.13ZM230.79,58l13.9-34.49L259,58Z"/><path d="M391.4,85.55l-6.08-6.28-.07-.07-.34-.27-.2-.26-2.47-2.54L379,72.85l-31.41-32L362.19,27.6l2.14-2.4c2.27-2,4-3.88,5.75-5.48L390.93.13h-9.49l-25.26,22.8a1.65,1.65,0,0,0-.54.93L330,47.25V.13H312.8V99.79H330V56.48l4.88-4.55,26.33,26.34.67.66.6.61,8.89,9.15,10.3,11.1H405.5Z"/></svg>