<svg width="596" height="219" viewBox="0 0 596 219" fill="none" xmlns="http://www.w3.org/2000/svg">
<g clip-path="url(#clip0)">
<path d="M32.5 173.89L13.38 193.27V217.87H3.48999V124.3H13.38V180.84L68.32 124.3H79.69L39.18 166.67L82.49 217.87H70.73L32.5 173.89Z" fill="white"/>
<path d="M106.69 208.24C99.91 201.293 96.5233 191.18 96.53 177.9V124.3H106.42V177.5C106.42 188.373 108.87 196.48 113.77 201.82C118.67 207.16 125.757 209.827 135.03 209.82C144.363 209.82 151.493 207.153 156.42 201.82C161.347 196.487 163.797 188.38 163.77 177.5V124.3H173.39V177.9C173.39 191.18 170.027 201.293 163.3 208.24C156.573 215.187 147.14 218.663 135 218.67C122.9 218.67 113.463 215.193 106.69 208.24Z" fill="white"/>
<path d="M265.89 217.87L244.5 187.79C242.016 188.063 239.519 188.196 237.02 188.19H211.89V217.87H202V124.3H237C248.94 124.3 258.297 127.15 265.07 132.85C271.843 138.55 275.23 146.393 275.23 156.38C275.23 163.713 273.38 169.883 269.68 174.89C265.98 179.897 260.7 183.53 253.84 185.79L276.7 217.87H265.89ZM258 173.62C262.887 169.52 265.333 163.773 265.34 156.38C265.34 148.8 262.893 142.987 258 138.94C253.107 134.893 246.02 132.863 236.74 132.85H211.89V179.77H236.75C246.023 179.77 253.107 177.72 258 173.62Z" fill="white"/>
<path d="M313 212.52C305.709 208.574 299.649 202.691 295.49 195.52C291.326 188.062 289.139 179.662 289.139 171.12C289.139 162.578 291.326 154.178 295.49 146.72C299.663 139.535 305.749 133.65 313.07 129.72C320.786 125.562 329.436 123.445 338.2 123.57C344.779 123.485 351.315 124.648 357.46 127C363.171 129.195 368.303 132.671 372.46 137.16L366.18 143.44C358.847 136.053 349.62 132.357 338.5 132.35C331.446 132.263 324.492 134.014 318.32 137.43C312.396 140.679 307.471 145.486 304.08 151.33C300.709 157.378 298.94 164.186 298.94 171.11C298.94 178.034 300.709 184.842 304.08 190.89C307.471 196.737 312.395 201.547 318.32 204.8C324.493 208.212 331.447 209.963 338.5 209.88C349.727 209.88 358.953 206.137 366.18 198.65L372.46 204.93C368.301 209.434 363.172 212.933 357.46 215.16C351.305 217.562 344.747 218.763 338.14 218.7C329.368 218.837 320.709 216.708 313 212.52Z" fill="white"/>
<path d="M451 192.87H398.9L387.67 217.87H377.38L420.15 124.3H429.91L472.68 217.87H462.26L451 192.87ZM447.39 184.87L425 134.59L402.5 184.85L447.39 184.87Z" fill="white"/>
<path d="M502.56 212.52C495.269 208.574 489.209 202.691 485.05 195.52C480.886 188.062 478.699 179.662 478.699 171.12C478.699 162.578 480.886 154.178 485.05 146.72C489.223 139.535 495.309 133.65 502.63 129.72C510.346 125.562 518.996 123.445 527.76 123.57C534.332 123.487 540.861 124.651 547 127C552.711 129.195 557.843 132.671 562 137.16L555.71 143.44C548.377 136.053 539.153 132.357 528.04 132.35C520.986 132.261 514.031 134.012 507.86 137.43C501.935 140.679 497.012 145.486 493.62 151.33C490.249 157.378 488.48 164.186 488.48 171.11C488.48 178.034 490.249 184.842 493.62 190.89C497.011 196.737 501.935 201.547 507.86 204.8C514.024 208.196 520.963 209.936 528 209.85C539.233 209.85 548.457 206.107 555.67 198.62L562 204.9C557.841 209.404 552.712 212.903 547 215.13C540.845 217.532 534.287 218.733 527.68 218.67C518.917 218.812 510.266 216.694 502.56 212.52V212.52Z" fill="white"/>
<path d="M581.89 124.3H591.79V217.87H581.89V124.3Z" fill="white"/>
<path d="M123.69 63.43C123.801 69.4532 123.4 75.4749 122.49 81.43C121.929 84.8218 120.177 87.9027 117.55 90.12C116.251 91.3311 114.725 92.2735 113.06 92.8931C111.396 93.5126 109.625 93.797 107.85 93.73C107.85 93.73 105.98 93.73 100.64 91.46L94.89 95.6C98.1 97.21 98.76 97.6 99.57 98.01C100.38 98.42 101.04 98.54 101.84 98.81C103.894 99.457 106.037 99.7743 108.19 99.75C113.056 99.8581 117.888 98.9203 122.36 97C126.15 95.3512 129.474 92.7929 132.038 89.5519C134.602 86.3109 136.327 82.4872 137.06 78.42C137.753 73.4511 138.067 68.4366 138 63.42V0.130005H123.69V63.43Z" fill="white"/>
<path d="M162.13 99.65H221.41V93.1H179.44V50.73H207.11V44.18H179.44V6.68H221.68V0H162.13V99.65Z" fill="white"/>
<path d="M265.66 63.43C265.769 69.4535 265.364 75.4753 264.45 81.43C263.889 84.8218 262.137 87.9027 259.51 90.12C256.875 92.542 253.397 93.8376 249.82 93.73C249.82 93.73 247.94 93.73 242.6 91.46L236.85 95.6C240.06 97.21 240.73 97.6 241.53 98.01C242.33 98.42 243 98.54 243.8 98.81C245.83 99.4568 247.95 99.7741 250.08 99.75C254.969 99.8682 259.826 98.9302 264.32 97C268.111 95.3512 271.436 92.79 273.997 89.5447C276.559 86.2993 278.277 82.4707 279 78.4C279.693 73.4311 280.007 68.4166 279.94 63.4V0.130005H265.64L265.66 63.43Z" fill="white"/>
<path d="M342.39 0.130005L301.15 99.79H309.7L323.4 64.36H356.4L363.35 81.07C363.35 81.07 365.49 86.15 370.97 99.79H389.55L347.33 0.130005H342.39ZM325.68 58L339.58 23.51L353.88 58H325.68Z" fill="white"/>
<path d="M486.29 85.55L480.2 79.27L480.14 79.2L479.8 78.93L479.6 78.67L477.13 76.13L473.92 72.85L442.51 40.85L457.08 27.6L459.22 25.2C461.49 23.2 463.22 21.32 464.96 19.72L485.82 0.130005H476.33L451.06 22.93C450.784 23.1715 450.597 23.4992 450.53 23.86L424.93 47.25V0.130005H407.69V99.79H424.93V56.48L429.81 51.93L456.14 78.27L456.81 78.93L457.41 79.54L466.3 88.69L476.59 99.79H500.39L486.29 85.55Z" fill="white"/>
</g>
<defs>
<clipPath id="clip0">
<rect width="595.28" height="218.67" fill="white"/>
</clipPath>
</defs>
</svg>
