<svg width="596" height="219" viewBox="0 0 596 219" fill="none" xmlns="http://www.w3.org/2000/svg">
<g clip-path="url(#clip0)">
<path d="M36 173.89L16.87 193.27V217.87H7V124.3H16.89V180.84L71.81 124.3H83.18L42.67 166.67L86 217.87H74.22L36 173.89Z" fill="white"/>
<path d="M110.18 208.24C103.393 201.293 100 191.18 100 177.9V124.3H109.89V177.5C109.89 188.373 112.34 196.48 117.24 201.82C122.14 207.16 129.227 209.827 138.5 209.82C147.833 209.82 154.96 207.153 159.88 201.82C164.8 196.487 167.253 188.38 167.24 177.5V124.3H176.86V177.9C176.86 191.18 173.497 201.293 166.77 208.24C160.043 215.187 150.62 218.663 138.5 218.67C126.38 218.67 116.94 215.193 110.18 208.24Z" fill="white"/>
<path d="M269.38 217.87L248 187.79C245.516 188.063 243.019 188.196 240.52 188.19H215.37V217.87H205.48V124.3H240.48C252.42 124.3 261.777 127.15 268.55 132.85C275.323 138.55 278.71 146.393 278.71 156.38C278.71 163.713 276.86 169.883 273.16 174.89C269.46 179.897 264.18 183.53 257.32 185.79L280.18 217.87H269.38ZM261.49 173.62C266.39 169.52 268.84 163.773 268.84 156.38C268.84 148.8 266.39 142.987 261.49 138.94C256.59 134.893 249.507 132.863 240.24 132.85H215.37V179.77H240.24C249.513 179.77 256.597 177.72 261.49 173.62Z" fill="white"/>
<path d="M316.5 212.52C309.209 208.574 303.149 202.691 298.99 195.52C294.826 188.062 292.639 179.662 292.639 171.12C292.639 162.578 294.826 154.178 298.99 146.72C303.163 139.535 309.249 133.65 316.57 129.72C324.286 125.562 332.936 123.445 341.7 123.57C348.272 123.487 354.801 124.651 360.94 127C366.651 129.195 371.783 132.671 375.94 137.16L369.66 143.44C362.327 136.053 353.1 132.357 341.98 132.35C334.926 132.263 327.972 134.014 321.8 137.43C315.875 140.679 310.952 145.486 307.56 151.33C304.189 157.378 302.42 164.186 302.42 171.11C302.42 178.034 304.189 184.842 307.56 190.89C310.951 196.737 315.875 201.547 321.8 204.8C327.982 208.205 334.943 209.945 342 209.85C353.233 209.85 362.46 206.107 369.68 198.62L375.96 204.9C371.801 209.404 366.672 212.903 360.96 215.13C354.805 217.532 348.247 218.733 341.64 218.67C332.871 218.816 324.212 216.698 316.5 212.52Z" fill="white"/>
<path d="M454.52 192.87H402.38L391.16 217.87H380.86L423.64 124.3H433.4L476.17 217.87H465.75L454.52 192.87ZM450.91 184.87L428.45 134.61L406 184.85L450.91 184.87Z" fill="white"/>
<path d="M506.05 212.52C498.759 208.574 492.699 202.691 488.54 195.52C484.376 188.062 482.189 179.662 482.189 171.12C482.189 162.578 484.376 154.178 488.54 146.72C492.713 139.535 498.799 133.65 506.12 129.72C513.836 125.562 522.486 123.445 531.25 123.57C537.822 123.487 544.351 124.651 550.49 127C556.201 129.195 561.333 132.671 565.49 137.16L559.2 143.44C551.9 136.053 542.677 132.357 531.53 132.35C524.476 132.261 517.521 134.012 511.35 137.43C505.426 140.679 500.501 145.486 497.11 151.33C493.739 157.378 491.97 164.186 491.97 171.11C491.97 178.034 493.739 184.842 497.11 190.89C500.501 196.737 505.425 201.547 511.35 204.8C517.523 208.213 524.477 209.964 531.53 209.88C542.763 209.88 551.987 206.137 559.2 198.65L565.49 204.93C561.329 209.432 556.2 212.93 550.49 215.16C544.335 217.562 537.777 218.763 531.17 218.7C522.405 218.833 513.753 216.705 506.05 212.52Z" fill="white"/>
<path d="M585.38 124.3H595.28V217.87H585.38V124.3Z" fill="white"/>
<path d="M28.81 63.43C28.9189 69.4535 28.5141 75.4753 27.6 81.43C27.0387 84.8218 25.2874 87.9027 22.66 90.12C21.3687 91.3335 19.8509 92.2804 18.1934 92.9067C16.5358 93.533 14.771 93.8264 13 93.77C13 93.77 11.13 93.77 5.78 91.5L0 95.64C3.21 97.25 3.88 97.64 4.68 98.05C5.48 98.46 6.15 98.58 6.95 98.85C9.00387 99.4962 11.147 99.8134 13.3 99.79C18.1688 99.8873 23.0015 98.9358 27.47 97C31.2651 95.3538 34.5936 92.7938 37.1586 89.5483C39.7236 86.3028 41.4453 82.4728 42.17 78.4C42.8632 73.4311 43.1775 68.4166 43.11 63.4V0.130005H28.81V63.43Z" fill="white"/>
<path d="M67.24 99.65H126.52V93.1H84.55V50.73H112.22V44.18H84.55V6.68H126.79V0H67.24V99.65Z" fill="white"/>
<path d="M170.77 63.43C170.876 69.453 170.475 75.4743 169.57 81.43C169.004 84.8226 167.25 87.9032 164.62 90.12C161.985 92.542 158.507 93.8376 154.93 93.73C154.93 93.73 153.06 93.73 147.71 91.46L142 95.64C145.21 97.25 145.88 97.64 146.68 98.05C147.48 98.46 148.15 98.58 148.95 98.85C150.983 99.4968 153.107 99.8142 155.24 99.79C160.115 99.8883 164.955 98.9368 169.43 97C173.402 95.3006 176.853 92.578 179.43 89.11C181.822 85.972 183.427 82.3062 184.11 78.42C184.794 73.4502 185.105 68.4362 185.04 63.42V0.130005H170.74L170.77 63.43Z" fill="white"/>
<path d="M247.5 0.130005L206.26 99.79H214.81L228.52 64.36H261.52L268.52 81.07C268.52 81.07 270.66 86.15 276.14 99.79H294.72L252.44 0.130005H247.5ZM230.79 58L244.69 23.51L259 58H230.79Z" fill="white"/>
<path d="M391.4 85.55L385.32 79.27L385.25 79.2L384.91 78.93L384.71 78.67L382.24 76.13L379 72.85L347.59 40.85L362.19 27.6L364.33 25.2C366.6 23.2 368.33 21.32 370.08 19.72L390.93 0.130005H381.44L356.18 22.93C355.901 23.171 355.711 23.4984 355.64 23.86L330 47.25V0.130005H312.8V99.79H330V56.48L334.88 51.93L361.21 78.27L361.88 78.93L362.48 79.54L371.37 88.69L381.67 99.79H405.5L391.4 85.55Z" fill="white"/>
</g>
<defs>
<clipPath id="clip0">
<rect width="595.28" height="218.67" fill="white"/>
</clipPath>
</defs>
</svg>
