<svg id="Layer_1" data-name="Layer 1" xmlns="http://www.w3.org/2000/svg" viewBox="0 0 512 512"><title>Artboard 27</title><path id="Path_783" data-name="Path 783" d="M263,0C122.63,0,48,89.92,48,188c0,45.47,25.41,102.18,66.08,120.16,6.18,2.78,9.6,1.6,10.91-4.13,1.22-4.35,6.56-25.31,9.16-35.2a9.07,9.07,0,0,0-2.18-8.89,116.59,116.59,0,0,1-24.22-70.76c0-68.38,54.4-134.78,146.87-134.78,80,0,136,52,136,126.31,0,84-44.45,142.1-102.2,142.1a45.77,45.77,0,0,1-48.23-56.12c9.12-37,27-76.71,27-103.36a39.7,39.7,0,0,0-35.48-43.51,38.92,38.92,0,0,0-5.61-.17c-32.54,0-58.94,32.22-58.94,75.49a107.64,107.64,0,0,0,9.73,46s-32.19,130-38.18,154.34c-10.11,41.12,1.38,107.71,2.37,113.44a3.37,3.37,0,0,0,6.14,1.6,403,403,0,0,0,53-99.81c4-14.62,20.26-73.92,20.26-73.92a88.45,88.45,0,0,0,74.62,35.58c98,0,168.9-86.2,168.9-193.19C463.63,76.7,375.89,0,263,0"/></svg>